<svg  viewBox="0 0 95 61" fill="none" xmlns="http://www.w3.org/2000/svg">
<g clip-path="url(#clip0)">
<path opacity="0.995" d="M34.3922 0.183451L33.7282 0.514697C32.9393 2.67172 31.6954 6.34151 30.2922 10.5761C28.3413 11.5502 25.9929 13.1127 23.3081 15.3489C23.5244 15.2474 23.7409 15.1456 23.9572 15.044C26.1927 13.0366 28.3611 11.6038 30.2395 10.7358C28.2885 16.6263 26.0437 23.5683 24.2404 29.2235C24.0568 29.2394 23.8728 29.2564 23.6936 29.2638C23.8671 29.2703 24.0459 29.2691 24.2275 29.2638C22.2995 35.3105 20.8885 39.8431 20.946 39.8379C22.0406 36.5408 23.2098 32.9506 24.4135 29.2582C27.8302 29.0905 32.4814 27.0155 35.033 25.2155C34.3662 27.0426 33.4054 29.6337 34.5426 29.4607C36.4123 29.1763 37.8567 27.7936 38.8669 26.0625C39.5436 27.4657 40.9756 26.0089 41.6124 24.5034C43.3536 23.2459 43.4026 23.3893 43.465 25.1979C44.2609 24.8324 44.9264 24.199 45.4639 23.4497C45.1835 24.7946 45.0013 26.1858 44.3203 27.3311C44.172 27.4689 44.0248 27.6062 43.8764 27.7435C44.0052 27.6346 44.1365 27.5238 44.2743 27.4092C44.0272 27.8072 43.7167 28.1739 43.3162 28.4964C43.1017 28.5643 43.0864 28.5102 43.185 28.3859C43.0138 28.5447 42.8405 28.704 42.6708 28.8634C43.2258 28.6887 43.8271 28.1109 44.3342 27.3585C44.8398 26.9378 45.3457 26.5155 45.4861 26.3147C47.2013 24.5952 48.9009 22.701 50.0858 20.5822C49.4449 22.234 49.4578 24.1676 48.705 25.7979C47.9475 28.2829 46.4855 30.5189 44.6975 32.3872C47.4125 29.8487 48.9612 26.3051 49.707 22.7056C49.7752 22.1152 50.2915 20.5303 50.3773 20.037C50.4612 19.8714 50.5425 19.7047 50.6196 19.5363C50.536 19.6617 50.4606 19.7905 50.3897 19.9213C50.3845 19.7898 50.2391 20.0106 49.8233 20.8928C48.4602 23.372 46.4549 25.3454 44.4061 27.2516C45.061 26.2402 45.54 24.9422 45.5171 23.8668C45.5122 23.7059 45.551 23.4826 45.6132 23.2322C46.2624 22.257 46.7059 21.1186 46.9382 20.1171C46.1112 20.9813 45.7609 22.0778 45.5099 23.2213C44.6127 24.5595 43.2806 25.7972 43.3818 23.5438C43.0142 23.3121 42.3365 23.8552 41.6651 24.3768C41.8711 23.8516 41.9772 23.3303 41.9122 22.9324C41.4704 21.6666 40.5215 22.4917 39.9919 23.4937C40.1732 22.924 40.3182 22.3542 40.4197 21.8049C40.5404 21.152 39.6303 22.4946 39.0891 23.8621C39.681 22.4177 40.8379 20.6797 40.1577 22.8208C39.8101 23.7012 39.3629 24.7102 38.8291 25.6661C38.7934 25.4814 38.7719 25.2653 38.7718 25.0073C38.7718 24.9378 38.7807 24.8573 38.7971 24.7685C38.7021 25.1711 38.6723 25.5333 38.7578 25.7907C37.6736 27.6948 36.2392 29.3514 34.525 29.2799C33.872 29.2526 34.5339 27.0771 35.2335 25.0708C36.8821 23.8635 37.5291 22.8093 36.1296 22.5857C36.5661 21.5628 37.0216 20.4504 37.4923 19.3079C37.814 18.9419 38.133 18.5504 38.4473 18.1389C38.1426 18.5129 37.8345 18.8762 37.5259 19.2272C39.1219 15.3553 40.8852 11.2155 42.6398 9.49193C42.5895 9.92819 42.5118 10.358 42.4129 10.7823C42.6061 10.1571 42.7433 9.5675 42.7989 9.04337C40.3896 11.8608 38.7753 16.0202 37.3398 19.4329C37.0784 19.7265 36.8166 20.0182 36.5595 20.2944C36.8065 20.0567 37.0543 19.7936 37.3021 19.5203C37.1181 19.9568 36.9365 20.3852 36.7569 20.792C36.8963 20.4871 36.4426 21.5501 36.0216 22.5717C34.8704 22.4316 32.5049 22.789 28.4484 23.9531C39.5212 13.2494 38.7005 6.61316 30.6979 10.3797C31.965 6.71868 33.2102 3.24265 34.3922 0.183451H34.3922ZM42.4129 10.7823C41.7039 13.0765 40.1633 15.8922 38.4473 18.1389C40.1788 16.0137 41.7727 13.5282 42.4129 10.7823ZM39.0891 23.8621C38.9519 24.1968 38.8435 24.5169 38.7971 24.768C38.8653 24.4791 38.9667 24.1712 39.0891 23.8621ZM43.185 28.3859C43.4151 28.1722 43.6452 27.9574 43.8764 27.7435C43.5612 28.0101 43.2968 28.2448 43.185 28.3859ZM56.0617 7.48326C55.8625 7.53743 55.6627 7.59144 55.4638 7.64553C53.4829 17.4143 48.8889 26.6951 50.8486 27.9058C53.2045 29.3613 55.7714 23.8234 56.7506 22.0885C55.9201 24.3377 55.2473 27.3471 56.1086 27.6786C57.6852 28.4079 62.28 20.0361 62.9336 18.1979C63.5001 15.8556 64.0977 13.5355 64.2865 11.0794C64.3563 10.1714 64.2199 6.92463 63.838 9.13329C63.8621 13.3434 63.0622 17.6399 60.9456 21.3145C59.9816 23.2478 57.4529 28.1563 56.2423 27.4113C54.7587 26.4985 58.9075 17.6702 58.9075 17.6702C58.9075 17.6702 53.55 28.3771 51.645 27.5518C49.0429 26.4244 55.0689 10.9736 56.0617 7.48326V7.48326ZM70.5719 8.53074C68.6844 9.65932 66.8311 16.3058 66.214 18.2676C66.9969 16.0525 67.8534 13.8626 68.7508 11.6959C69.197 10.6466 70.8977 6.82465 70.6866 10.1047C70.4517 13.7559 68.9691 17.7143 65.7769 19.6288C65.7712 19.646 65.7655 19.6632 65.7598 19.6805C68.9671 17.5933 71.8668 11.9147 70.6866 8.53126C70.6477 8.52778 70.6096 8.52772 70.5719 8.53073L70.5719 8.53074ZM65.7598 19.6805C65.7466 19.688 65.7338 19.6962 65.7205 19.7037C65.5606 20.179 65.406 20.6559 65.2539 21.1336C65.431 20.6523 65.599 20.1677 65.7598 19.6805V19.6805ZM65.2539 21.1336C65.2104 21.2517 65.1701 21.371 65.1252 21.4886C64.2189 24.2937 63.1192 26.8263 62.9601 29.8082C62.9322 30.3304 64.2977 29.3675 64.9883 28.5786C64.532 31.662 64.7254 36.1149 65.1195 37.0448C66.3877 32.8602 67.6236 28.2472 68.9157 24.1928C69.8488 24.0508 70.815 23.9225 71.5553 23.4931C70.7924 23.8175 69.8621 23.9141 68.9648 24.0414C69.2436 23.1705 69.5256 22.3291 69.8107 21.5222C70.498 20.2393 71.0954 18.9138 71.5176 17.5235C71.3764 17.608 71.2478 17.7071 71.1279 17.817C71.1377 17.8238 71.0625 18.0726 70.8391 18.7332C70.6561 19.2214 70.4607 19.7032 70.2546 20.1786C70.5751 19.2303 71.0687 17.8979 71.1238 17.8206C70.1643 18.7044 69.8455 20.346 69.464 21.8565C69.0593 22.6516 68.6191 23.4253 68.1452 24.1773C66.9948 24.4074 66.0167 24.8369 65.6999 26.093C65.4109 26.5707 65.1992 27.3362 65.0456 28.2365C64.6404 28.678 63.5866 29.3602 63.1505 29.7785C62.7243 29.4577 64.9628 22.0503 65.2539 21.1336V21.1336ZM65.7205 19.7037C65.7263 19.6866 65.7323 19.6696 65.7381 19.6525C65.2507 19.9411 64.728 20.1829 64.1687 20.3672C63.0345 20.9928 60.1701 20.735 61.7923 22.5165C62.5848 23.9818 60.5392 27.694 60.2345 25.1615C60.1001 24.0451 61.6336 22.5499 60.9492 23.0511C59.8278 23.9619 59.6315 27.7894 61.6174 25.3922C62.5244 24.2911 61.9802 21.7314 61.8231 21.2866C63.1503 20.8995 64.502 20.3985 65.7205 19.7037V19.7037ZM65.7381 19.6525C65.7512 19.6448 65.7638 19.6366 65.7769 19.6288C65.9258 19.1762 66.0707 18.7222 66.214 18.2676C66.0513 18.728 65.894 19.1899 65.7381 19.6525V19.6525ZM33.9028 9.73997C37.7255 9.72586 37.5684 14.6057 27.7244 24.4094C32.4286 23.093 34.8756 22.8284 35.7859 23.1454C35.6386 23.511 35.5117 23.8353 35.4469 24.027C35.3695 24.2843 35.245 24.6322 35.109 25.0067C33.0118 26.6646 28.3057 28.8174 24.4295 29.2096C26.4505 23.0101 28.5707 16.534 30.6353 10.5616C31.8922 10.023 33.0085 9.74327 33.9028 9.73997V9.73997ZM46.6602 20.5956C46.7096 20.5581 46.619 20.8665 46.269 21.748C46.1954 22.0373 45.9766 22.4818 45.6918 22.9418C45.9885 21.9398 46.568 20.6658 46.6602 20.5956ZM69.3198 22.4064C69.2009 22.8332 69.069 23.2393 68.9069 23.6027C68.8653 23.7553 68.818 23.9146 68.7751 24.0698C68.6003 24.0959 68.428 24.1249 68.2584 24.1567C68.6249 23.5816 68.9793 22.9978 69.3198 22.4064ZM41.2486 22.596C41.6232 22.6073 41.891 22.9595 41.7747 23.8673C41.7525 24.0405 41.7015 24.2193 41.6378 24.398C40.7406 25.0943 39.8631 25.7314 39.7666 24.3887C39.76 24.2972 39.7647 24.2052 39.7779 24.1138C39.8472 23.927 39.9131 23.7402 39.9738 23.5526C40.2712 23.0059 40.8264 22.5834 41.2486 22.596H41.2486ZM35.9006 23.1908C36.4997 23.4762 36.1911 24.0991 35.3126 24.8419C35.5292 24.2268 35.7235 23.6875 35.9006 23.1908ZM68.7322 24.2223C68.3074 25.7517 67.8392 27.3569 67.4961 28.5414C66.6606 31.2859 65.2285 36.3045 65.0927 36.7089C65.0927 36.7089 65.0165 31.4931 65.4694 27.9921C66.0243 27.2855 66.5464 26.5345 67.0569 25.9876C67.4258 25.4385 67.7918 24.8825 68.1519 24.3215C68.3407 24.2845 68.5362 24.253 68.7322 24.2223V24.2223ZM68.0403 24.3437C67.2814 25.5298 66.4371 26.6602 65.5045 27.727C65.612 26.9644 65.7459 26.2924 65.9148 25.7974C66.2413 24.889 67.0685 24.5464 68.0403 24.3437ZM39.6317 24.4905C39.5213 25.2161 39.8848 25.6454 41.2026 24.7995C41.3515 24.6906 41.467 24.6088 41.5964 24.5153C41.0356 25.9139 39.4068 27.2439 38.9149 25.9752C39.1865 25.4999 39.425 25.0006 39.6317 24.4905Z" fill="white" stroke="white" stroke-width="0.148418"/>
<path opacity="0.995" d="M91.8016 39.4121C82.5234 41.7758 58.1587 44.2519 56.9619 58.9855C61.6205 42.4337 82.5853 43.6413 91.8016 39.4121V39.4121ZM94.9094 40.5691C89.1523 51.1927 80.2005 51.8364 69.959 51.3183C81.6546 52.2052 89.3901 51.4047 94.9094 40.5691ZM85.0646 42.3354C83.2046 46.6811 77.8624 47.7865 74.6456 45.3414L73.9402 45.4768C78.2998 48.1731 83.5552 47.352 85.0646 42.3354Z" fill="white"/>
</g>
<defs>
<clipPath id="clip0">
<rect width="94.9092" height="60.5729" fill="white"/>
</clipPath>
</defs>
</svg>
