<svg width="52" height="40" viewBox="0 0 52 40" fill="none" xmlns="http://www.w3.org/2000/svg">
<path opacity="0.995" d="M14.3922 0.183451L13.7282 0.514697C12.9393 2.67172 11.6954 6.34151 10.2922 10.5761C8.34132 11.5502 5.99285 13.1127 3.30813 15.3489C3.52439 15.2474 3.74093 15.1456 3.95719 15.044C6.19274 13.0366 8.36111 11.6038 10.2395 10.7358C8.28854 16.6263 6.0437 23.5683 4.24037 29.2235C4.0568 29.2394 3.87276 29.2564 3.69364 29.2638C3.86708 29.2703 4.04594 29.2691 4.22745 29.2638C2.29947 35.3105 0.888506 39.8431 0.946001 39.8379C2.04061 36.5408 3.20979 32.9506 4.41349 29.2582C7.83024 29.0905 12.4814 27.0155 15.033 25.2155C14.3662 27.0426 13.4054 29.6337 14.5426 29.4607C16.4123 29.1763 17.8567 27.7936 18.8669 26.0625C19.5436 27.4657 20.9756 26.0089 21.6124 24.5034C23.3536 23.2459 23.4026 23.3893 23.465 25.1979C24.2609 24.8324 24.9264 24.199 25.4639 23.4497C25.1835 24.7946 25.0013 26.1858 24.3203 27.3311C24.172 27.4689 24.0248 27.6062 23.8764 27.7435C24.0052 27.6346 24.1365 27.5238 24.2743 27.4092C24.0272 27.8072 23.7167 28.1739 23.3162 28.4964C23.1017 28.5643 23.0864 28.5102 23.185 28.3859C23.0138 28.5447 22.8405 28.704 22.6708 28.8634C23.2258 28.6887 23.8271 28.1109 24.3342 27.3585C24.8398 26.9378 25.3457 26.5155 25.4861 26.3147C27.2013 24.5952 28.9009 22.701 30.0858 20.5822C29.4449 22.234 29.4578 24.1676 28.705 25.7979C27.9475 28.2829 26.4855 30.5189 24.6975 32.3872C27.4125 29.8487 28.9612 26.3051 29.707 22.7056C29.7752 22.1152 30.2915 20.5303 30.3773 20.037C30.4612 19.8714 30.5425 19.7047 30.6196 19.5363C30.536 19.6617 30.4606 19.7905 30.3897 19.9213C30.3845 19.7898 30.2391 20.0106 29.8233 20.8928C28.4602 23.372 26.4549 25.3454 24.4061 27.2516C25.061 26.2402 25.54 24.9422 25.5171 23.8668C25.5122 23.7059 25.551 23.4826 25.6132 23.2322C26.2624 22.257 26.7059 21.1186 26.9382 20.1171C26.1112 20.9813 25.7609 22.0778 25.5099 23.2213C24.6127 24.5595 23.2806 25.7972 23.3818 23.5438C23.0142 23.3121 22.3365 23.8552 21.6651 24.3768C21.8711 23.8516 21.9772 23.3303 21.9122 22.9324C21.4704 21.6666 20.5215 22.4917 19.9919 23.4937C20.1732 22.924 20.3182 22.3542 20.4197 21.8049C20.5404 21.152 19.6303 22.4946 19.0891 23.8621C19.681 22.4177 20.8379 20.6797 20.1577 22.8208C19.8101 23.7012 19.3629 24.7102 18.8291 25.6661C18.7934 25.4814 18.7719 25.2653 18.7718 25.0073C18.7718 24.9378 18.7807 24.8573 18.7971 24.7685C18.7021 25.1711 18.6723 25.5333 18.7578 25.7907C17.6736 27.6948 16.2392 29.3514 14.525 29.2799C13.872 29.2526 14.5339 27.0771 15.2335 25.0708C16.8821 23.8635 17.5291 22.8093 16.1296 22.5857C16.5661 21.5628 17.0216 20.4504 17.4923 19.3079C17.814 18.9419 18.133 18.5504 18.4473 18.1389C18.1426 18.5129 17.8345 18.8762 17.5259 19.2272C19.1219 15.3553 20.8852 11.2155 22.6398 9.49193C22.5895 9.92819 22.5118 10.358 22.4129 10.7823C22.6061 10.1571 22.7433 9.5675 22.7989 9.04337C20.3896 11.8608 18.7753 16.0202 17.3398 19.4329C17.0784 19.7265 16.8166 20.0182 16.5595 20.2944C16.8065 20.0567 17.0543 19.7936 17.3021 19.5203C17.1181 19.9568 16.9365 20.3852 16.7569 20.792C16.8963 20.4871 16.4426 21.5501 16.0216 22.5717C14.8704 22.4316 12.5049 22.789 8.44838 23.9531C19.5212 13.2494 18.7005 6.61316 10.6979 10.3797C11.965 6.71868 13.2102 3.24265 14.3922 0.183451H14.3922ZM22.4129 10.7823C21.7039 13.0765 20.1633 15.8922 18.4473 18.1389C20.1788 16.0137 21.7727 13.5282 22.4129 10.7823ZM19.0891 23.8621C18.9519 24.1968 18.8435 24.5169 18.7971 24.768C18.8653 24.4791 18.9667 24.1712 19.0891 23.8621ZM23.185 28.3859C23.4151 28.1722 23.6452 27.9574 23.8764 27.7435C23.5612 28.0101 23.2968 28.2448 23.185 28.3859ZM36.0617 7.48326C35.8625 7.53743 35.6627 7.59144 35.4638 7.64553C33.4829 17.4143 28.8889 26.6951 30.8486 27.9058C33.2045 29.3613 35.7714 23.8234 36.7506 22.0885C35.9201 24.3377 35.2473 27.3471 36.1086 27.6786C37.6852 28.4079 42.28 20.0361 42.9336 18.1979C43.5001 15.8556 44.0977 13.5355 44.2865 11.0794C44.3563 10.1714 44.2199 6.92463 43.838 9.13329C43.8621 13.3434 43.0622 17.6399 40.9456 21.3145C39.9816 23.2478 37.4529 28.1563 36.2423 27.4113C34.7587 26.4985 38.9075 17.6702 38.9075 17.6702C38.9075 17.6702 33.55 28.3771 31.645 27.5518C29.0429 26.4244 35.0689 10.9736 36.0617 7.48326V7.48326ZM50.5719 8.53074C48.6844 9.65932 46.8311 16.3058 46.214 18.2676C46.9969 16.0525 47.8534 13.8626 48.7508 11.6959C49.197 10.6466 50.8977 6.82465 50.6866 10.1047C50.4517 13.7559 48.9691 17.7143 45.7769 19.6288C45.7712 19.646 45.7655 19.6632 45.7598 19.6805C48.9671 17.5933 51.8668 11.9147 50.6866 8.53126C50.6477 8.52778 50.6096 8.52772 50.5719 8.53073L50.5719 8.53074ZM45.7598 19.6805C45.7466 19.688 45.7338 19.6962 45.7205 19.7037C45.5606 20.179 45.406 20.6559 45.2539 21.1336C45.431 20.6523 45.599 20.1677 45.7598 19.6805V19.6805ZM45.2539 21.1336C45.2104 21.2517 45.1701 21.371 45.1252 21.4886C44.2189 24.2937 43.1192 26.8263 42.9601 29.8082C42.9322 30.3304 44.2977 29.3675 44.9883 28.5786C44.532 31.662 44.7254 36.1149 45.1195 37.0448C46.3877 32.8602 47.6236 28.2472 48.9157 24.1928C49.8488 24.0508 50.815 23.9225 51.5553 23.4931C50.7924 23.8175 49.8621 23.9141 48.9648 24.0414C49.2436 23.1705 49.5256 22.3291 49.8107 21.5222C50.498 20.2393 51.0954 18.9138 51.5176 17.5235C51.3764 17.608 51.2478 17.7071 51.1279 17.817C51.1377 17.8238 51.0625 18.0726 50.8391 18.7332C50.6561 19.2214 50.4607 19.7032 50.2546 20.1786C50.5751 19.2303 51.0687 17.8979 51.1238 17.8206C50.1643 18.7044 49.8455 20.346 49.464 21.8565C49.0593 22.6516 48.6191 23.4253 48.1452 24.1773C46.9948 24.4074 46.0167 24.8369 45.6999 26.093C45.4109 26.5707 45.1992 27.3362 45.0456 28.2365C44.6404 28.678 43.5866 29.3602 43.1505 29.7785C42.7243 29.4577 44.9628 22.0503 45.2539 21.1336V21.1336ZM45.7205 19.7037C45.7263 19.6866 45.7323 19.6696 45.7381 19.6525C45.2507 19.9411 44.728 20.1829 44.1687 20.3672C43.0345 20.9928 40.1701 20.735 41.7923 22.5165C42.5848 23.9818 40.5392 27.694 40.2345 25.1615C40.1001 24.0451 41.6336 22.5499 40.9492 23.0511C39.8278 23.9619 39.6315 27.7894 41.6174 25.3922C42.5244 24.2911 41.9802 21.7314 41.8231 21.2866C43.1503 20.8995 44.502 20.3985 45.7205 19.7037V19.7037ZM45.7381 19.6525C45.7512 19.6448 45.7638 19.6366 45.7769 19.6288C45.9258 19.1762 46.0707 18.7222 46.214 18.2676C46.0513 18.728 45.894 19.1899 45.7381 19.6525V19.6525ZM13.9028 9.73997C17.7255 9.72586 17.5684 14.6057 7.7244 24.4094C12.4286 23.093 14.8756 22.8284 15.7859 23.1454C15.6386 23.511 15.5117 23.8353 15.4469 24.027C15.3695 24.2843 15.245 24.6322 15.109 25.0067C13.0118 26.6646 8.30569 28.8174 4.42951 29.2096C6.45049 23.0101 8.57074 16.534 10.6353 10.5616C11.8922 10.023 13.0085 9.74327 13.9028 9.73997V9.73997ZM26.6602 20.5956C26.7096 20.5581 26.619 20.8665 26.269 21.748C26.1954 22.0373 25.9766 22.4818 25.6918 22.9418C25.9885 21.9398 26.568 20.6658 26.6602 20.5956ZM49.3198 22.4064C49.2009 22.8332 49.069 23.2393 48.9069 23.6027C48.8653 23.7553 48.818 23.9146 48.7751 24.0698C48.6003 24.0959 48.428 24.1249 48.2584 24.1567C48.6249 23.5816 48.9793 22.9978 49.3198 22.4064ZM21.2486 22.596C21.6232 22.6073 21.891 22.9595 21.7747 23.8673C21.7525 24.0405 21.7015 24.2193 21.6378 24.398C20.7406 25.0943 19.8631 25.7314 19.7666 24.3887C19.76 24.2972 19.7647 24.2052 19.7779 24.1138C19.8472 23.927 19.9131 23.7402 19.9738 23.5526C20.2712 23.0059 20.8264 22.5834 21.2486 22.596H21.2486ZM15.9006 23.1908C16.4997 23.4762 16.1911 24.0991 15.3126 24.8419C15.5292 24.2268 15.7235 23.6875 15.9006 23.1908ZM48.7322 24.2223C48.3074 25.7517 47.8392 27.3569 47.4961 28.5414C46.6606 31.2859 45.2285 36.3045 45.0927 36.7089C45.0927 36.7089 45.0165 31.4931 45.4694 27.9921C46.0243 27.2855 46.5464 26.5345 47.0569 25.9876C47.4258 25.4385 47.7918 24.8825 48.1519 24.3215C48.3407 24.2845 48.5362 24.253 48.7322 24.2223V24.2223ZM48.0403 24.3437C47.2814 25.5298 46.4371 26.6602 45.5045 27.727C45.612 26.9644 45.7459 26.2924 45.9148 25.7974C46.2413 24.889 47.0685 24.5464 48.0403 24.3437ZM19.6317 24.4905C19.5213 25.2161 19.8848 25.6454 21.2026 24.7995C21.3515 24.6906 21.467 24.6088 21.5964 24.5153C21.0356 25.9139 19.4068 27.2439 18.9149 25.9752C19.1865 25.4999 19.425 25.0006 19.6317 24.4905Z" fill="white" stroke="white" stroke-width="0.148418"/>
</svg>
